<?xml version="1.0" standalone="no"?>
<!DOCTYPE svg PUBLIC "-//W3C//DTD SVG 20010904//EN"
 "http://www.w3.org/TR/2001/REC-SVG-20010904/DTD/svg10.dtd">
<svg version="1.0" xmlns="http://www.w3.org/2000/svg"
 width="292.000000pt" height="255.000000pt" viewBox="0 0 292.000000 255.000000"
 preserveAspectRatio="xMidYMid meet">
<metadata>
Created by potrace 1.10, written by Peter Selinger 2001-2011
</metadata>
<g transform="translate(0.000000,255.000000) scale(0.100000,-0.100000)"
fill="#000000" stroke="none">
<path d="M1509 2478 c-13 -40 -24 -77 -24 -83 0 -5 -4 -16 -8 -22 -5 -7 -5
-13 -1 -13 3 0 2 -6 -4 -12 -5 -7 -13 -32 -17 -55 -4 -24 -11 -43 -16 -43 -5
0 -9 -8 -9 -17 0 -28 -24 -88 -40 -97 -8 -6 -33 -9 -55 -7 -90 5 -335 -39
-335 -60 0 -5 -6 -9 -14 -9 -27 0 -127 -61 -173 -106 -54 -51 -31 -49 -220
-24 -45 6 -99 12 -120 15 -91 11 -192 25 -238 34 -69 14 -88 13 -79 -1 5 -8 2
-9 -9 -5 -11 4 -20 -1 -27 -13 -13 -25 0 -53 38 -77 28 -18 108 -76 129 -93 7
-6 24 -15 37 -22 14 -6 23 -14 21 -18 -2 -4 13 -16 35 -26 22 -10 40 -22 40
-26 0 -5 7 -8 16 -8 8 0 13 -4 10 -9 -6 -9 11 -20 26 -17 19 3 38 -45 32 -81
-7 -43 12 -224 27 -257 6 -13 7 4 2 49 -5 39 -8 120 -7 180 l1 110 -41 29
c-177 127 -307 216 -314 216 -12 0 -43 35 -37 42 3 3 36 -1 73 -8 37 -7 148
-22 247 -34 99 -11 212 -28 252 -36 40 -9 77 -13 82 -10 5 3 11 2 13 -2 1 -4
113 -22 248 -39 135 -17 251 -32 259 -34 10 -3 24 24 48 91 18 52 35 104 38
115 2 11 7 33 11 49 7 27 6 28 -13 11 -11 -10 -18 -25 -16 -35 4 -15 -9 -18
-134 -23 -154 -7 -276 -32 -357 -75 -77 -41 -86 -43 -86 -27 0 8 24 32 53 54
132 97 277 141 469 141 l106 0 7 32 c4 17 24 83 45 147 21 64 48 150 60 191
13 41 25 78 27 83 2 4 -5 7 -15 7 -15 0 -25 -16 -43 -72z m-177 -558 c-2 -25
-11 -53 -19 -62 -8 -9 -12 -21 -9 -26 7 -12 -14 -10 -139 12 -49 8 -114 17
-143 20 -96 10 -118 21 -89 43 34 27 229 62 327 60 l75 -2 -3 -45z"/>
<path d="M1606 2528 c3 -12 50 -137 103 -279 l97 -258 49 -26 c131 -70 252
-158 356 -261 l76 -74 114 -16 c63 -9 136 -19 163 -23 55 -7 69 -24 34 -42
-34 -18 -178 -133 -178 -142 0 -4 8 -22 17 -40 13 -24 18 -65 21 -162 4 -129
4 -131 -28 -203 -18 -39 -36 -72 -41 -72 -17 0 -19 21 -3 51 21 42 30 171 15
239 -30 142 -38 151 -87 104 -16 -14 -60 -51 -98 -82 -39 -31 -81 -66 -93 -77
l-23 -21 61 -134 c33 -74 71 -159 84 -187 13 -29 28 -53 32 -53 12 0 87 69 82
75 -3 3 -15 -4 -27 -15 -32 -30 -48 -24 -67 22 -9 24 -20 45 -24 48 -5 3 -20
37 -36 75 -15 39 -38 91 -51 116 l-23 47 60 48 c33 27 71 58 83 69 12 11 35
28 51 39 22 14 27 15 22 3 -3 -8 1 -27 9 -42 14 -27 14 -187 -1 -277 -4 -31
-2 -40 15 -50 22 -14 27 -54 8 -61 -7 -2 -9 -8 -5 -13 9 -9 46 33 47 53 0 7 6
16 13 20 36 22 70 148 65 242 l-3 64 35 13 35 12 -33 1 c-28 1 -33 5 -39 31
-3 17 -10 33 -14 36 -5 3 -9 23 -9 44 0 43 6 50 129 150 57 46 36 88 -52 102
-29 4 -68 10 -87 13 -19 3 -57 10 -83 16 -26 6 -51 9 -54 6 -5 -6 -30 15 -127
106 -28 26 -60 56 -71 67 -12 10 -33 24 -48 31 -15 7 -27 16 -27 21 0 4 -7 8
-15 8 -7 0 -18 6 -22 13 -4 8 -45 33 -90 57 -89 47 -92 52 -132 168 -12 35
-28 74 -37 87 -8 12 -14 27 -13 31 2 5 -5 27 -15 49 -9 22 -22 59 -28 82 -6
24 -14 43 -18 43 -4 0 -15 29 -25 65 -15 50 -23 65 -38 65 -14 0 -17 -5 -11
-22z"/>
<path d="M1834 1930 c6 -34 36 -78 36 -52 0 7 -4 12 -10 12 -5 0 -7 7 -4 15 4
8 1 15 -6 15 -6 0 -9 4 -6 8 2 4 0 14 -6 22 -7 11 -8 5 -4 -20z"/>
<path d="M660 1863 c-42 -16 -101 -112 -114 -185 -11 -63 -9 -239 4 -303 18
-89 115 -282 166 -330 5 -5 21 -26 34 -45 13 -19 64 -71 113 -115 49 -44 110
-101 135 -126 59 -57 87 -77 188 -128 83 -43 123 -57 184 -67 19 -3 43 -10 53
-15 9 -5 17 -7 17 -4 0 3 16 -2 36 -10 20 -8 42 -15 50 -15 7 0 25 -5 41 -11
88 -35 531 -35 567 1 5 5 24 10 41 10 58 0 127 28 169 68 23 21 60 57 83 79
23 22 45 39 48 37 3 -2 3 -1 0 2 -2 4 6 21 19 38 64 85 96 184 96 301 0 84
-10 135 -31 158 -11 11 -16 10 -32 -6 -15 -15 -18 -29 -14 -65 3 -27 -1 -58
-9 -78 -8 -19 -13 -37 -12 -41 2 -12 -33 -94 -54 -128 -26 -39 -111 -115 -137
-122 -14 -3 -48 -16 -76 -28 -96 -43 -255 -78 -255 -56 0 6 -44 39 -99 75 -54
35 -102 69 -105 75 -10 16 -42 13 -57 -5 -8 -10 -47 -39 -88 -66 l-75 -50 -80
28 c-96 31 -271 117 -347 168 -30 20 -60 36 -68 36 -40 0 -222 179 -287 282
-15 24 -30 45 -34 48 -10 8 -49 88 -65 134 -8 22 -17 66 -20 96 -5 53 -4 51
20 -32 27 -97 53 -154 87 -191 46 -50 68 -77 68 -85 0 -12 230 -242 242 -242
3 0 20 46 37 103 18 56 36 112 41 124 13 31 6 44 -42 73 -22 14 -46 30 -52 35
-6 6 -47 36 -91 67 -44 32 -84 61 -90 65 -5 5 -26 20 -45 33 -19 14 -42 30
-50 37 -58 46 -112 83 -121 83 -15 0 -3 155 15 208 30 87 30 97 -4 85z m-21
-95 c-30 -90 -34 -156 -14 -260 10 -51 29 -116 42 -145 12 -28 23 -54 23 -57
0 -3 14 -29 32 -58 67 -111 150 -203 270 -302 104 -85 133 -104 265 -172 423
-217 907 -204 1143 29 96 94 151 235 136 345 -4 32 -2 42 8 42 19 0 30 -102
21 -187 -26 -247 -192 -410 -487 -480 -163 -38 -440 -18 -628 47 -238 82 -422
189 -585 342 -65 60 -175 193 -202 244 -86 162 -105 224 -109 356 -2 93 1 116
22 175 23 63 71 149 79 141 2 -2 -5 -29 -16 -60z m241 -404 c0 2 14 -9 31 -25
17 -16 37 -29 45 -29 8 0 14 -4 14 -10 0 -5 7 -10 15 -10 7 0 18 -6 22 -13 4
-8 27 -24 50 -37 48 -27 56 -40 43 -75 -5 -14 -12 -37 -14 -52 -9 -46 -41
-113 -54 -113 -19 0 -126 108 -217 220 -82 101 -122 176 -134 251 l-8 46 104
-79 c57 -43 103 -77 103 -74z m890 -573 c3 -3 25 -20 50 -36 97 -64 75 -81
-78 -60 -84 12 -154 34 -109 35 9 0 17 4 17 8 0 4 15 16 33 27 17 10 35 24 40
31 7 12 35 9 47 -5z m-115 -96 c44 -9 131 -19 193 -22 61 -3 112 -9 112 -14 0
-26 -231 -20 -328 10 -18 5 -36 11 -40 12 -21 5 -32 12 -32 20 0 12 1 12 95
-6z"/>
<path d="M1865 1840 c-3 -5 -1 -17 5 -27 6 -10 19 -43 29 -73 17 -52 20 -55
57 -62 118 -20 168 -27 175 -22 5 3 -17 26 -48 51 -78 63 -211 145 -218 133z
m118 -105 c32 -29 34 -35 8 -35 -22 0 -74 43 -64 53 11 12 27 7 56 -18z"/>
<path d="M1295 1753 c-14 -33 -23 -83 -16 -83 5 0 13 17 20 38 7 20 15 43 17
50 3 6 1 12 -4 12 -5 0 -13 -8 -17 -17z"/>
<path d="M1830 1700 c36 -12 62 -12 55 0 -3 6 -23 10 -43 9 -33 -1 -34 -2 -12
-9z"/>
<path d="M2045 1275 c4 -11 14 -38 22 -60 19 -52 27 -59 18 -15 -4 19 -16 49
-27 65 -11 17 -17 21 -13 10z"/>
<path d="M2587 1230 c10 -21 17 -71 21 -140 6 -137 -15 -237 -70 -327 -40 -66
-131 -163 -153 -163 -18 0 -27 -27 -16 -48 19 -34 91 -191 91 -196 0 -15 -25
-3 -73 34 -70 54 -66 51 -116 84 l-44 28 -66 -15 c-130 -31 -200 -39 -340 -35
-77 2 -141 0 -141 -4 0 -5 76 -8 169 -8 159 0 297 16 340 40 9 5 31 -4 61 -24
25 -17 53 -35 62 -41 8 -5 37 -27 64 -47 49 -37 79 -41 96 -14 11 16 2 52 -21
85 -11 15 -18 31 -15 34 3 3 -6 26 -20 52 l-26 46 68 72 c127 135 162 226 161
422 0 119 -13 185 -36 192 -8 3 -7 -6 4 -27z"/>
<path d="M710 994 c0 -13 48 -59 55 -52 3 2 -9 17 -25 33 -17 16 -30 24 -30
19z"/>
<path d="M1798 892 c-44 -31 -46 -37 -16 -39 18 -2 20 0 8 7 -8 5 -10 10 -5
10 12 1 59 39 54 44 -2 2 -21 -8 -41 -22z"/>
<path d="M879 816 c19 -20 42 -36 50 -36 10 0 5 7 -11 18 -16 9 -28 20 -28 24
0 4 -10 13 -22 19 -17 9 -14 2 11 -25z"/>
<path d="M956 745 c13 -20 15 -31 7 -43 -5 -10 -15 -42 -22 -72 -7 -30 -19
-75 -27 -100 -9 -25 -18 -60 -20 -79 -3 -19 -8 -40 -13 -45 -16 -22 -33 -106
-27 -132 4 -14 9 -25 11 -23 7 8 135 459 135 478 0 10 -8 21 -17 25 -10 3 -24
9 -31 12 -10 4 -8 -2 4 -21z"/>
<path d="M1129 428 c-217 -148 -255 -176 -246 -184 8 -8 47 6 47 17 0 5 8 9
18 9 9 0 28 10 42 23 14 12 45 36 70 52 25 17 47 33 48 38 2 4 7 5 11 2 5 -2
23 9 41 25 19 17 38 30 44 30 6 0 38 21 70 45 33 25 63 45 67 45 4 0 40 -11
81 -25 40 -14 84 -25 98 -24 14 0 -9 11 -51 24 -42 12 -90 30 -107 39 -17 9
-33 16 -34 16 -2 0 -92 -60 -199 -132z"/>
<path d="M1552 476 c12 -13 73 -23 93 -15 18 7 17 8 -6 8 -15 1 -42 4 -60 7
-19 4 -31 4 -27 0z"/>
</g>
</svg>
